<?xml version="1.0" encoding="utf-8"?>
<!-- Generator: Adobe Illustrator 26.0.3, SVG Export Plug-In . SVG Version: 6.00 Build 0)  -->
<svg version="1.0" id="katman_1" xmlns="http://www.w3.org/2000/svg" xmlns:xlink="http://www.w3.org/1999/xlink" x="0px" y="0px"
	 viewBox="0 0 900 620.8" style="enable-background:new 0 0 900 620.8;" xml:space="preserve">
<style type="text/css">
	.st0{fill:#FF612B;}
</style>
<g id="Layer_2">
	<g id="Layer_1-2">
		<path class="st0" d="M622.3,366.4V246.3h38.1l0.2,14.3c7.6-11,18.8-16.1,31.8-16.1c16.4,0,28,7.6,34.3,19.5
			c7.6-13,22-19.5,36.8-19.5c26.2,0,40.5,19.7,40.5,44.6v77.3h-38.8v-71.5c0-11.6-7.4-18.6-16.4-18.6s-16.3,7-16.3,18.6v71.5h-38.8
			v-71.5c0-11.6-7.4-18.6-16.4-18.6s-16.4,7-16.4,18.6v71.5H622.3z M609.3,320.7c0,30.9-24.6,48.4-56,48.4s-56-17.5-56-48.4v-74.4
			h39v73.3c0,10.5,6.9,17.2,17,17.2s17-6.7,17-17.2v-73.3h39V320.7z M486.7,277.2v-30.9h-32v-30.7h-38.8v107.8
			c0,29.8,17.7,44.8,46.2,44.8c8.3,0,17-0.9,24.6-4v-30.7c-4.8,1.6-9.7,2.4-14.7,2.4c-10.3,0-17.3-4.7-17.3-15.7v-43L486.7,277.2z
			 M366.9,306.4c0,17.3-12.5,30-28,30c-15.7,0-28.2-12.8-28.2-30c0-17,12.5-29.8,28.2-29.8C354.3,276.5,366.9,289.3,366.9,306.4z
			 M310.6,413v-59.1c10.1,9.4,23.4,14.6,37.2,14.6c32.5,0,58-27.6,58-62.1c0-34.3-25.5-61.8-58-61.8c-14.3-0.1-28.1,5.6-38.3,15.7
			l-0.2-13.9h-37.6V413H310.6z M218.8,288c0,24.6-18.1,43-40.8,43s-40.8-18.4-40.8-43s18.1-43,40.8-43S218.8,263.3,218.8,288
			L218.8,288z M178,207.8c-45.9,0-82,35.6-82,80.2s36.1,80.2,82,80.2s82-35.6,82-80.2S223.9,207.8,178,207.8z"/>
	</g>
</g>
</svg>
